<svg data-v-423bf9ae="" xmlns="http://www.w3.org/2000/svg" viewBox="0 0 2269 1246" class="iconLeftSlogan"><!----><!----><!----><g data-v-423bf9ae="" id="269312b3-b266-4d60-9c5d-52b205209da6" fill="#FFFFFF" transform="matrix(5.323868912170654,0,0,5.323868912170654,1873.1987002376125,-8.944100843109034)"><path d="M3.22 8.39C3.22 7.21 3.63 6.27 4.44 5.56C5.25 4.86 6.17 4.51 7.21 4.51C7.89 4.51 8.48 4.63 8.99 4.89C9.49 5.14 9.86 5.48 10.09 5.92L10.50 3.60C9.88 2.97 8.85 2.66 7.41 2.66C6.28 2.66 5.24 2.90 4.29 3.37C3.34 3.84 2.58 4.53 2.00 5.45C1.41 6.37 1.12 7.42 1.12 8.61C1.12 9.85 1.54 10.87 2.39 11.68C3.24 12.48 4.38 12.88 5.81 12.88C6.51 12.88 7.10 12.81 7.57 12.66C8.05 12.51 8.51 12.26 8.96 11.91L9.42 9.48C9.02 9.94 8.51 10.31 7.90 10.60C7.29 10.89 6.65 11.03 5.99 11.03C5.18 11.03 4.51 10.80 4.00 10.32C3.48 9.85 3.22 9.21 3.22 8.39ZM16.90 6.16L16.69 7.38C16.50 6.91 16.21 6.54 15.81 6.28C15.42 6.01 14.97 5.88 14.46 5.88C13.50 5.88 12.62 6.25 11.83 6.99C11.04 7.72 10.64 8.66 10.64 9.80C10.64 10.75 10.90 11.50 11.43 12.05C11.96 12.60 12.65 12.88 13.50 12.88C13.93 12.88 14.37 12.76 14.80 12.51C15.24 12.26 15.62 11.92 15.95 11.48L15.75 12.60L17.64 12.60L18.79 6.16ZM12.59 9.76C12.59 9.05 12.80 8.50 13.23 8.13C13.66 7.75 14.18 7.56 14.78 7.56C15.25 7.56 15.63 7.67 15.92 7.89C16.21 8.11 16.35 8.45 16.35 8.92C16.35 9.66 16.12 10.22 15.67 10.61C15.21 11.00 14.70 11.20 14.15 11.20C13.69 11.20 13.31 11.07 13.02 10.81C12.73 10.56 12.59 10.21 12.59 9.76ZM24.30 8.09L25.54 6.58C25.27 6.16 24.74 5.95 23.95 5.95C23.40 5.95 22.84 6.29 22.27 6.96L22.41 6.16L20.45 6.16L19.32 12.60L21.28 12.60L21.92 8.96C22.06 8.17 22.56 7.77 23.42 7.77C23.76 7.77 24.05 7.88 24.30 8.09ZM26.91 10.35L25.20 10.88C25.21 11.43 25.48 11.91 26.01 12.33C26.53 12.74 27.22 12.95 28.06 12.95C28.91 12.95 29.61 12.74 30.16 12.33C30.70 11.91 30.97 11.30 30.97 10.49C30.97 9.94 30.77 9.50 30.38 9.18C30.18 9.03 29.78 8.82 29.16 8.58C28.91 8.48 28.74 8.41 28.65 8.37C28.56 8.33 28.46 8.28 28.34 8.21C28.21 8.14 28.14 8.08 28.11 8.02C28.07 7.95 28.06 7.88 28.06 7.80C28.06 7.63 28.13 7.49 28.27 7.38C28.41 7.28 28.57 7.22 28.77 7.22C29.20 7.22 29.54 7.50 29.81 8.06L31.36 7.56C31.25 7.05 30.97 6.63 30.52 6.30C30.07 5.97 29.50 5.81 28.80 5.81C27.99 5.81 27.34 6.01 26.85 6.41C26.36 6.81 26.11 7.32 26.11 7.94C26.11 8.50 26.25 8.92 26.54 9.20C26.83 9.48 27.22 9.70 27.71 9.86C28.56 10.15 28.99 10.43 28.99 10.71C28.99 10.92 28.90 11.07 28.72 11.18C28.54 11.29 28.32 11.34 28.06 11.34C27.72 11.34 27.45 11.25 27.25 11.08C27.05 10.91 26.94 10.66 26.91 10.35ZM31.46 4.55L33.98 4.55L32.56 12.60L34.57 12.60L35.98 4.55L38.46 4.55L38.77 2.80L31.77 2.80ZM41.82 8.09L43.05 6.58C42.78 6.16 42.25 5.95 41.47 5.95C40.92 5.95 40.36 6.29 39.79 6.96L39.93 6.16L37.97 6.16L36.83 12.60L38.79 12.60L39.44 8.96C39.58 8.17 40.08 7.77 40.94 7.77C41.27 7.77 41.57 7.88 41.82 8.09ZM49.22 6.16L49.01 7.38C48.83 6.91 48.54 6.54 48.14 6.28C47.74 6.01 47.29 5.88 46.79 5.88C45.83 5.88 44.95 6.25 44.16 6.99C43.36 7.72 42.97 8.66 42.97 9.80C42.97 10.75 43.23 11.50 43.76 12.05C44.28 12.60 44.97 12.88 45.82 12.88C46.26 12.88 46.70 12.76 47.13 12.51C47.57 12.26 47.95 11.92 48.27 11.48L48.08 12.60L49.97 12.60L51.11 6.16ZM44.91 9.76C44.91 9.05 45.13 8.50 45.56 8.13C45.99 7.75 46.50 7.56 47.11 7.56C47.58 7.56 47.95 7.67 48.24 7.89C48.53 8.11 48.68 8.45 48.68 8.92C48.68 9.66 48.45 10.22 47.99 10.61C47.53 11.00 47.03 11.20 46.48 11.20C46.01 11.20 45.64 11.07 45.35 10.81C45.06 10.56 44.91 10.21 44.91 9.76ZM58.76 1.68L57.75 7.36C57.56 6.90 57.27 6.53 56.88 6.27C56.49 6.01 56.04 5.88 55.54 5.88C54.45 5.88 53.54 6.23 52.81 6.94C52.08 7.65 51.72 8.65 51.72 9.94C51.72 10.88 51.98 11.61 52.50 12.12C53.02 12.63 53.71 12.88 54.57 12.88C55.01 12.88 55.45 12.76 55.88 12.51C56.32 12.26 56.70 11.92 57.02 11.48L56.83 12.60L58.72 12.60L60.65 1.68ZM53.66 9.76C53.66 9.05 53.88 8.50 54.31 8.13C54.74 7.75 55.25 7.56 55.86 7.56C56.33 7.56 56.70 7.67 56.99 7.89C57.28 8.11 57.43 8.45 57.43 8.92C57.43 9.66 57.20 10.22 56.74 10.61C56.28 11.00 55.78 11.20 55.23 11.20C54.76 11.20 54.39 11.07 54.10 10.81C53.81 10.56 53.66 10.21 53.66 9.76ZM62.26 9.87L67.35 9.87C67.48 9.49 67.55 9.05 67.55 8.57C67.55 7.76 67.26 7.09 66.68 6.58C66.10 6.07 65.38 5.81 64.51 5.81C63.31 5.81 62.31 6.22 61.53 7.03C60.75 7.84 60.35 8.85 60.35 10.05C60.35 10.89 60.63 11.57 61.19 12.10C61.75 12.62 62.53 12.88 63.53 12.88C64.42 12.88 65.14 12.70 65.69 12.33C66.24 11.96 66.72 11.46 67.13 10.82L65.42 10.42C64.97 11.08 64.39 11.41 63.66 11.41C63.24 11.41 62.90 11.28 62.64 11.03C62.39 10.77 62.26 10.40 62.26 9.91ZM65.62 8.48L62.55 8.48C62.71 8.10 62.97 7.79 63.32 7.56C63.68 7.33 64.04 7.21 64.40 7.21C65.19 7.21 65.60 7.63 65.62 8.48ZM73.01 8.09L74.24 6.58C73.97 6.16 73.44 5.95 72.66 5.95C72.11 5.95 71.55 6.29 70.98 6.96L71.12 6.16L69.16 6.16L68.03 12.60L69.99 12.60L70.63 8.96C70.77 8.17 71.27 7.77 72.13 7.77C72.46 7.77 72.76 7.88 73.01 8.09Z"></path></g><!----><g data-v-423bf9ae="" id="67f380f4-d03f-4f18-8318-75ac7b2ec178" transform="matrix(3.7201022677951388,0,0,3.7201022677951388,204.90572104610294,-853.0005993800651)" stroke="none" fill="#50C1AE"><path d="M438.7 250.1h-7.6c-.9 0-1.2.6-1.4 1-.9 1.9-.9 3.8-.8 5.1.1 1.2-3.4.5-5.4.1 0-.1-.1-.2-.1-.3s-.1-.1-.1-.2c-3.6-9.7-8.8-22-11.5-23.7-3.2-2-23.9-2.6-37.1-2.6-13.2-.1-33.9.6-37.1 2.6-2.8 1.7-8 14.1-11.5 23.7 0 .1 0 .1-.1.2 0 .1-.1.2-.1.3-2 .4-5.5 1.1-5.4-.1.1-1.3.1-3.3-.8-5.1-.2-.4-.6-1-1.4-1h-7.6c-3.8 0-6.7 1.1-6.2 4.9.1.9.3 2.7.4 4.4.2 2.3 2 4 4.3 4.2 2.3.2 5.5.4 9.7.5-4.1 3.1-8.1 6.2-8.7 7-.8 1.4-4.2 19.8-2.4 34.2h-2.3c-16.3-.1-42 .7-45.9 3.2-3.4 2.2-9.9 17.4-14.3 29.4 0 .1-.1.2-.1.3s-.1.2-.1.3c-2.5.5-6.9 1.3-6.7-.1.1-1.6.1-4-1-6.4-.2-.5-.7-1.3-1.8-1.3h-9.4c-4.7 0-8.3 1.3-7.7 6.1.1 1.1.4 3.4.5 5.5.3 2.8 2.5 5 5.3 5.2 2.8.2 6.8.5 12 .6-5.1 3.8-10.1 7.7-10.8 8.7-.8 1.4-3.6 15.9-3.6 30.7-9.3-.3-18.9-.4-26.9-.4s-17.5.1-26.9.4c0-14.8-2.8-29.4-3.6-30.7-.7-1-5.7-4.8-10.8-8.7 5.1-.1 9.1-.4 12-.6 2.8-.2 5-2.4 5.3-5.2.2-2.1.4-4.4.5-5.5.5-4.7-3-6.1-7.7-6.1h-9.4c-1.1 0-1.5.7-1.8 1.3-1.1 2.3-1.1 4.7-1 6.4.1 1.4-4.3.7-6.7.1 0-.1-.1-.2-.1-.3s-.1-.2-.1-.3c-4.4-12-10.9-27.2-14.3-29.4-3.9-2.5-29.6-3.3-45.9-3.2h-2.3c1.8-14.3-1.6-32.8-2.4-34.2-.5-.8-4.6-3.9-8.7-7 4.1-.1 7.4-.3 9.7-.5 2.3-.2 4.1-2 4.3-4.2.2-1.7.3-3.5.4-4.4.4-3.8-2.4-4.9-6.2-4.9h-7.6c-.9 0-1.2.6-1.4 1-.9 1.9-.9 3.8-.8 5.1.1 1.2-3.4.5-5.4.1 0-.1-.1-.2-.1-.3s-.1-.1-.1-.2c-3.6-9.7-8.8-22-11.5-23.7-3.2-2-23.9-2.6-37.1-2.6-13.2-.1-33.9.6-37.1 2.6-2.8 1.7-8 14.1-11.5 23.7 0 .1 0 .2-.1.2 0 .1-.1.2-.1.3-2 .4-5.5 1.1-5.4-.1.1-1.3.1-3.3-.8-5.1-.2-.4-.6-1-1.4-1h-7.6c-3.8 0-6.7 1.1-6.2 4.9.1.9.3 2.7.4 4.4.2 2.3 2 4 4.3 4.2 2.3.2 5.5.4 9.7.5-4.1 3.1-8.1 6.2-8.7 7-1 1.6-5.3 26.1-1.2 40.6.1.1.4.4 1.7.8h.1c.2.1.4.1.6.2v11.8c0 3.2 1 5.7 2.3 5.7h13.4c1.3 0 2.3-2.6 2.3-5.7V315c.3 0 .6 0 1 .1 11.1.7 25.9 1 44.2 1 6.6 0 12.7 0 18.3-.1-3.1 6-6.5 14.6-9.2 21.9 0 .1-.1.2-.1.3 0 .1-.1.2-.1.3-2.5.5-6.9 1.3-6.7-.1.1-1.6.1-4-1-6.4-.2-.5-.7-1.3-1.8-1.3H5.2c-4.7 0-8.3 1.3-7.7 6.1.1 1.1.3 3.4.5 5.5.3 2.8 2.5 5 5.3 5.2s6.8.5 12 .6c-5.1 3.8-10.1 7.7-10.8 8.7-1.2 2-6.6 32.3-1.5 50.2.1.1.5.5 2.1 1h.1c.2.1.5.1.7.2v14.6c0 3.9 1.3 7.1 2.9 7.1h16.7c1.6 0 2.9-3.2 2.9-7.1v-11.9c.4 0 .8.1 1.2.1h.1c13.7.8 32.1 1.3 54.8 1.3 12.5 0 23.6-.1 33.4-.4-3 6.9-6 14.5-8.5 21.4 0 .1-.1.3-.1.4-.1.2-.1.3-.2.5-3.5.8-9.8 1.9-9.6-.2.2-2.3.2-5.7-1.4-9.1-.4-.8-1-1.8-2.5-1.8H82.2c-6.7 0-11.7 1.9-11 8.6.2 1.6.5 4.8.8 7.8.4 4 3.6 7.1 7.5 7.4 4 .3 9.7.7 17 .9-7.3 5.5-14.3 11-15.3 12.4-1.7 2.8-9.3 45.9-2.1 71.4.1.2.6.7 3 1.5h.2c.3.1.7.2 1.1.3v20.8c0 5.6 1.8 10.1 4.1 10.1h23.7c2.3 0 4.1-4.5 4.1-10.1v-16.9c.6 0 1.1.1 1.7.1h.1c19.5 1.2 45.6 1.8 77.9 1.8 32.2 0 58.4-.6 77.9-1.8h.1c.6 0 1.1-.1 1.7-.1v16.9c0 5.6 1.8 10.1 4.1 10.1h23.7c2.3 0 4.1-4.5 4.1-10.1v-20.8c.4-.1.7-.2 1.1-.3.1 0 .1 0 .2-.1 2.3-.7 2.8-1.3 3-1.5 7.3-25.5-.4-68.6-2.1-71.4-1-1.4-8-6.9-15.3-12.3 7.3-.2 13-.5 17-.9 4-.3 7.2-3.4 7.5-7.4.3-3 .6-6.2.8-7.8.8-6.7-4.2-8.6-11-8.6h-13.4c-1.5 0-2.2 1-2.5 1.8-1.5 3.3-1.6 6.7-1.4 9.1.2 2-6.1.9-9.6.2-.1-.2-.1-.3-.2-.5-.1-.1-.1-.2-.1-.4-2.5-6.9-5.5-14.5-8.6-21.4 9.8.3 21 .4 33.4.4 22.7 0 41.1-.4 54.8-1.3h.1c.4 0 .8-.1 1.2-.1v11.9c0 3.9 1.3 7.1 2.9 7.1H381c1.6 0 2.9-3.2 2.9-7.1v-14.6c.3-.1.5-.1.7-.2h.1c1.6-.5 2-.9 2.1-1 5.1-17.9-.3-48.2-1.5-50.2-.7-1-5.7-4.9-10.8-8.7 5.1-.1 9.1-.4 12-.6 2.8-.2 5-2.4 5.3-5.2.2-2.1.4-4.4.5-5.5.5-4.7-3-6.1-7.7-6.1h-9.4c-1.1 0-1.5.7-1.8 1.3-1.1 2.3-1.1 4.7-1 6.4.1 1.4-4.3.7-6.7.1 0-.1-.1-.2-.1-.3 0-.1-.1-.2-.1-.3-2.7-7.3-6.2-15.9-9.2-21.9 5.7.1 11.8.1 18.3.1 18.3 0 33.2-.3 44.2-1 .3 0 .7 0 1-.1v9.6c0 3.2 1 5.7 2.3 5.7h13.4c1.3 0 2.3-2.6 2.3-5.7v-11.8c.2-.1.4-.1.6-.2h.1c1.3-.4 1.6-.7 1.7-.8 4.1-14.5-.2-38.9-1.2-40.6-.6-.8-4.6-3.9-8.7-7 4.1-.1 7.4-.3 9.7-.5 2.3-.2 4.1-2 4.3-4.2.2-1.7.3-3.5.4-4.4.7-4-2.2-5-6-5zm-123.6 23.8c1-1.1 3.7-2 15.3 0 3.1.6 6.5 3.5 9.3 6.5 2.6 2.9.2 7.5-3.6 7-4.6-.6-10.1-.5-14-.3-3.5.2-6.7-2.2-7.5-5.6-.8-2.8-1.1-6 .5-7.6zm9.1 30.8c0 .3 0 .6-.1.9-3-.1-6.1-.2-9-.2 0-.2-.1-.4-.1-.7 0-2.5 2.1-4.6 4.6-4.6 2.5-.1 4.6 2 4.6 4.6zm-92.6 55.6c1.3-1.3 4.6-2.5 18.9 0 3.9.7 8.1 4.3 11.6 8.1 3.3 3.6.3 9.3-4.5 8.6-5.7-.7-12.4-.6-17.3-.4-4.4.2-8.3-2.7-9.3-6.9-1-3.5-1.3-7.5.6-9.4zm-73.2 0c1.9 2 1.6 5.9.7 9.4-1.1 4.2-5 7.1-9.3 6.9-4.9-.2-11.6-.3-17.3.4-4.8.6-7.8-5.1-4.5-8.6 3.5-3.8 7.7-7.4 11.6-8.1 14.2-2.5 17.5-1.3 18.8 0zm-83.5-86.4c1.6 1.6 1.3 4.7.6 7.6-.8 3.4-4 5.8-7.5 5.6-3.9-.2-9.3-.3-14 .3-3.9.5-6.3-4.1-3.6-7 2.8-3.1 6.2-6 9.3-6.5 11.5-2 14.2-1 15.2 0zm.2 30.8c0 .2 0 .4-.1.7-3 0-6 .1-9 .2-.1-.3-.1-.6-.1-.9 0-2.5 2.1-4.6 4.6-4.6 2.5-.1 4.6 2 4.6 4.6zm-114.9 4.6c-2.5 0-4.6-2.1-4.6-4.6s2.1-4.6 4.6-4.6 4.6 2.1 4.6 4.6c0 2.5-2.1 4.6-4.6 4.6zm16.4-21.8c-4.6-.6-10.1-.5-14-.3-3.5.2-6.7-2.2-7.5-5.6-.7-2.9-1-6 .6-7.6 1-1.1 3.7-2 15.3 0 3.1.6 6.5 3.5 9.3 6.5 2.6 2.9.2 7.5-3.7 7zm37.7 6.5c0 .9-.4 1.6-1 1.6l-17.6-.4c-3.5-.1-6.5-2.5-7.4-5.8-.6-2.1-1-5-1-8.9 0-7.5 26-5.2 26-5.2.5 0 1 .7 1 1.6V294zM-27 261.7c-.5 0-.9-.4-.9-.9v-.2c1.8-8 7.5-21.2 10.4-24 .5-.5 2-1.9 17.7-2.4 7.5-.2 14.8-.2 15.1-.2.2 0 7.5-.1 15.1.2 15.7.5 17.2 1.9 17.7 2.4 2.9 2.8 8.7 16 10.4 24 .1.3 0 .6-.2.8-.2.2-.4.3-.7.3-.2 0-8.6-.4-18.1-.7-9.5-.4-20-.7-24.2-.7-8.4 0-42 1.4-42.3 1.4zm44.3 33.9c-.5 0-1-.7-1-1.6v-17.2c0-.9.4-1.6 1-1.6 0 0 26-2.3 26 5.2 0 3.8-.4 6.7-1 8.9-.9 3.4-3.9 5.8-7.4 5.8l-17.6.5zm-1 108.4c-3.2 0-5.7-2.6-5.7-5.7s2.6-5.7 5.7-5.7c3.2 0 5.7 2.6 5.7 5.7s-2.6 5.7-5.7 5.7zm20.4-26.9c-5.7-.7-12.4-.6-17.3-.4-4.4.2-8.3-2.7-9.3-6.9-.9-3.6-1.2-7.5.7-9.4 1.3-1.3 4.6-2.5 18.9 0 3.9.7 8.1 4.3 11.6 8.1 3.1 3.5.2 9.2-4.6 8.6zm46.6 8.1c0 1.1-.5 1.9-1.2 1.9l-21.8-.5c-4.3-.1-8.1-3-9.2-7.2-.7-2.6-1.2-6.2-1.2-11 0-9.3 32.2-6.4 32.2-6.4.7 0 1.2.9 1.2 1.9v21.3zm-51.1-40.1c-.7 0-1.2-.5-1.2-1.2v-.3c2.2-9.9 9.3-26.3 12.9-29.7.7-.6 2.4-2.3 21.9-2.9 9.3-.3 18.4-.2 18.7-.2s9.3-.1 18.7.2c19.5.6 21.2 2.3 21.9 2.9 3.6 3.4 10.7 19.8 12.9 29.7.1.4 0 .7-.2 1s-.5.4-.9.4c-.2 0-10.7-.4-22.4-.9-11.7-.4-24.7-.9-30-.9-10.4.2-51.9 1.9-52.3 1.9zm76.6 41.5l-21.8.5c-.7 0-1.2-.9-1.2-1.9v-21.3c0-1.1.5-1.9 1.2-1.9 0 0 32.2-2.9 32.2 6.4 0 4.8-.5 8.3-1.2 11-1.1 4.2-4.9 7.1-9.2 7.2zM97.9 527.5c-4.5 0-8.1-3.6-8.1-8.1s3.6-8.1 8.1-8.1 8.1 3.6 8.1 8.1c.1 4.5-3.6 8.1-8.1 8.1zm29-38.3c-8.2-1-17.7-.9-24.6-.6-6.2.3-11.8-3.8-13.3-9.8-1.3-5.1-1.7-10.6 1-13.4 1.8-1.8 6.5-3.5 26.9.1 5.5 1 11.5 6.1 16.4 11.5 4.7 5 .4 13.1-6.4 12.2zm66.4 11.5c0 1.5-.8 2.7-1.7 2.7l-31-.7c-6.1-.1-11.4-4.3-13-10.3-1-3.8-1.7-8.8-1.7-15.6 0-13.3 45.8-9.2 45.8-9.2 1 0 1.7 1.2 1.7 2.7v30.4h-.1zm-72.8-56.9c-.9 0-1.6-.7-1.6-1.7v-.4c3.1-14.1 13.3-37.3 18.4-42.2.9-.9 3.5-3.3 31.1-4.2 13.3-.4 26.1-.3 26.5-.3s13.3-.1 26.5.3c27.7.9 30.2 3.3 31.1 4.2 5.1 4.9 15.3 28.2 18.4 42.2.1.5 0 1-.3 1.4s-.7.6-1.2.6h-.1c-.3 0-15.2-.6-31.9-1.3-16.7-.6-35.1-1.2-42.6-1.2-14.7.1-73.7 2.6-74.3 2.6zm122 48.7c-1.6 5.9-6.9 10.1-13 10.3l-31 .7c-1 0-1.7-1.2-1.7-2.7v-30.2c0-1.5.8-2.7 1.7-2.7 0 0 45.8-4.1 45.8 9.2-.1 6.6-.8 11.6-1.8 15.4zm49.6 35c-4.5 0-8.1-3.6-8.1-8.1s3.6-8.1 8.1-8.1 8.1 3.6 8.1 8.1-3.7 8.1-8.1 8.1zm7.9-62.2c2.7 2.8 2.2 8.4 1 13.4-1.5 6-7.1 10.1-13.3 9.8-6.9-.3-16.4-.4-24.6.6-6.8.9-11-7.2-6.4-12.3 4.9-5.4 10.9-10.5 16.4-11.5 20.4-3.5 25.1-1.8 26.9 0zm4.2-80.1c0 1.1-.5 1.9-1.2 1.9l-21.8-.5c-4.3-.1-8.1-3-9.2-7.2-.7-2.6-1.2-6.2-1.2-11 0-9.3 32.2-6.4 32.2-6.4.7 0 1.2.9 1.2 1.9v21.3zm34.6-5.8c-1.1 4.2-4.8 7.1-9.2 7.2l-21.8.5c-.7 0-1.2-.9-1.2-1.9v-21.3c0-1.1.5-1.9 1.2-1.9 0 0 32.2-2.9 32.2 6.4.1 4.8-.5 8.4-1.2 11zm34.9 24.6c-3.2 0-5.7-2.6-5.7-5.7s2.6-5.7 5.7-5.7c3.2 0 5.7 2.6 5.7 5.7s-2.5 5.7-5.7 5.7zm5.6-43.7c1.9 2 1.6 5.9.7 9.4-1.1 4.2-5 7.1-9.3 6.9-4.9-.2-11.6-.3-17.3.4-4.8.6-7.8-5.1-4.5-8.6 3.5-3.8 7.7-7.4 11.6-8.1 14.2-2.5 17.5-1.3 18.8 0zm-20.4-16.6v.3c0 .6-.5 1.2-1.1 1.2-.4 0-41.9-1.8-52.4-1.8-5.2 0-18.2.4-30 .9-11.7.4-22.2.9-22.4.9-.3 0-.6-.2-.9-.4-.2-.3-.3-.7-.2-1 2.2-9.9 9.3-26.3 12.9-29.7.7-.6 2.4-2.3 21.9-2.9 9.3-.3 18.4-.2 18.7-.2.3 0 9.3-.1 18.7.2 19.5.6 21.2 2.3 21.9 2.9 3.6 3.3 10.7 19.7 12.9 29.6zm14.8-49.7c0 .9-.4 1.6-1 1.6l-17.6-.4c-3.5-.1-6.5-2.5-7.4-5.8-.6-2.1-1-5-1-8.9 0-7.5 26-5.2 26-5.2.5 0 1 .7 1 1.6V294zm1-33.7c-4.2 0-14.7.3-24.2.7s-17.9.7-18.1.7c-.3 0-.5-.1-.7-.3-.2-.2-.2-.5-.2-.8 1.8-8 7.5-21.2 10.4-24 .5-.5 2-1.9 17.7-2.4 7.5-.2 14.9-.2 15.1-.2s7.5-.1 15.1.2c15.7.5 17.2 1.9 17.7 2.4 2.9 2.8 8.7 16 10.4 24v.2c0 .5-.4.9-.9.9-.3 0-33.9-1.4-42.3-1.4zm27 29.1c-.9 3.4-3.9 5.8-7.4 5.8l-17.6.4c-.5 0-1-.7-1-1.6v-17.2c0-.9.4-1.6 1-1.6 0 0 26-2.3 26 5.2 0 4-.5 6.8-1 9zm28.1 19.9c-2.5 0-4.6-2.1-4.6-4.6s2.1-4.6 4.6-4.6 4.6 2.1 4.6 4.6c.1 2.5-2 4.6-4.6 4.6zm4.5-35.4c1.6 1.6 1.3 4.7.6 7.6-.8 3.4-4 5.8-7.5 5.6-3.9-.2-9.3-.3-14 .3-3.9.5-6.3-4.1-3.6-7 2.8-3.1 6.2-6 9.3-6.5 11.5-2 14.2-1 15.2 0z"></path></g><!----><g data-v-423bf9ae="" id="2c4a446a-c814-4b17-8343-82eb659aa02d" fill="#FFFFFF" transform="matrix(0.6187784573557156,0,0,0.6187784573557156,1879.068537383019,56.4853388785365)"><path d="M8.41 5.88L7.42 15.68L5.28 15.68L4.37 6.38L4.20 6.38L3.29 15.68L1.15 15.68L0.15 5.88L1.22 5.88L2.16 15.18L2.32 15.18L3.21 5.88L5.36 5.88L6.24 15.18L6.41 15.18L7.35 5.88L8.41 5.88ZM16.88 15.68L16.88 5.88L22.82 5.88L22.82 6.97L18.06 6.97L18.06 10.22L22.74 10.22L22.74 11.31L18.06 11.31L18.06 14.59L22.90 14.59L22.90 15.68L16.88 15.68ZM47.54 6.97L47.54 5.88L54.43 5.88L54.43 6.97L51.58 6.97L51.58 15.68L50.40 15.68L50.40 6.97L47.54 6.97ZM69.62 12.15L69.62 15.68L68.45 15.68L68.45 12.40L68.45 12.40Q68.45 12.04 68.28 11.84L68.28 11.84L68.28 11.84Q68.11 11.65 67.69 11.65L67.69 11.65L64.64 11.65L64.64 15.68L63.46 15.68L63.46 5.88L66.96 5.88L66.96 5.88Q67.72 5.88 68.28 6.10L68.28 6.10L68.28 6.10Q68.84 6.31 69.21 6.68L69.21 6.68L69.21 6.68Q69.58 7.04 69.77 7.53L69.77 7.53L69.77 7.53Q69.96 8.01 69.96 8.54L69.96 8.54L69.96 8.96L69.96 8.96Q69.96 9.51 69.66 10.05L69.66 10.05L69.66 10.05Q69.36 10.60 68.73 10.89L68.73 10.89L68.73 11.06L68.73 11.06Q69.15 11.13 69.38 11.40L69.38 11.40L69.38 11.40Q69.62 11.66 69.62 12.15L69.62 12.15ZM64.64 6.97L64.64 10.56L66.82 10.56L66.82 10.56Q67.82 10.56 68.30 10.13L68.30 10.13L68.30 10.13Q68.78 9.70 68.78 8.88L68.78 8.88L68.78 8.62L68.78 8.62Q68.78 7.88 68.30 7.43L68.30 7.43L68.30 7.43Q67.82 6.97 66.82 6.97L66.82 6.97L64.64 6.97ZM84.94 15.68L84.22 13.24L80.02 13.24L79.31 15.68L78.05 15.68L81.02 5.88L83.23 5.88L86.20 15.68L84.94 15.68ZM82.21 6.38L82.04 6.38L80.35 12.15L83.90 12.15L82.21 6.38ZM94.43 6.97L94.43 5.88L97.65 5.88L97.65 5.88Q99.47 5.88 100.31 6.75L100.31 6.75L100.31 6.75Q101.15 7.62 101.15 9.52L101.15 9.52L101.15 12.04L101.15 12.04Q101.15 13.94 100.31 14.81L100.31 14.81L100.31 14.81Q99.47 15.68 97.65 15.68L97.65 15.68L94.43 15.68L94.43 14.57L95.27 14.57L95.27 6.97L94.43 6.97ZM96.45 14.59L97.48 14.59L97.48 14.59Q98.13 14.59 98.59 14.46L98.59 14.46L98.59 14.46Q99.06 14.34 99.37 14.04L99.37 14.04L99.37 14.04Q99.68 13.73 99.83 13.23L99.83 13.23L99.83 13.23Q99.97 12.73 99.97 11.96L99.97 11.96L99.97 9.60L99.97 9.60Q99.97 8.83 99.83 8.33L99.83 8.33L99.83 8.33Q99.68 7.83 99.37 7.53L99.37 7.53L99.37 7.53Q99.06 7.22 98.59 7.10L98.59 7.10L98.59 7.10Q98.13 6.97 97.48 6.97L97.48 6.97L96.45 6.97L96.45 14.59ZM110.29 15.68L110.29 5.88L116.23 5.88L116.23 6.97L111.47 6.97L111.47 10.22L116.14 10.22L116.14 11.31L111.47 11.31L111.47 14.59L116.31 14.59L116.31 15.68L110.29 15.68ZM147.21 15.68L146.50 13.24L142.30 13.24L141.58 15.68L140.32 15.68L143.29 5.88L145.50 5.88L148.47 15.68L147.21 15.68ZM144.48 6.38L144.31 6.38L142.62 12.15L146.17 12.15L144.48 6.38ZM159.05 5.88L161.88 15.18L162.05 15.18L162.05 5.88L163.23 5.88L163.23 15.68L160.87 15.68L158.05 6.38L157.88 6.38L157.88 15.68L156.70 15.68L156.70 5.88L159.05 5.88ZM174.94 15.68L174.94 12.24L174.69 12.24L171.63 5.88L172.94 5.88L175.45 11.23L175.62 11.23L178.12 5.88L179.44 5.88L176.37 12.24L176.12 12.24L176.12 15.68L174.94 15.68ZM187.66 6.97L187.66 5.88L194.54 5.88L194.54 6.97L191.69 6.97L191.69 15.68L190.51 15.68L190.51 6.97L187.66 6.97ZM203.41 15.68L203.41 5.88L204.58 5.88L204.58 10.22L208.75 10.22L208.75 5.88L209.93 5.88L209.93 15.68L208.75 15.68L208.75 11.31L204.58 11.31L204.58 15.68L203.41 15.68ZM219.13 6.97L219.13 5.88L225.34 5.88L225.34 6.97L222.82 6.97L222.82 14.59L225.34 14.59L225.34 15.68L219.13 15.68L219.13 14.59L221.65 14.59L221.65 6.97L219.13 6.97ZM236.89 5.88L239.72 15.18L239.89 15.18L239.89 5.88L241.07 5.88L241.07 15.68L238.71 15.68L235.89 6.38L235.72 6.38L235.72 15.68L234.54 15.68L234.54 5.88L236.89 5.88ZM252.43 12.07L252.43 10.98L256.80 10.98L256.80 15.68L255.71 15.68L255.71 14.50L255.54 14.50L255.54 14.50Q255.30 15.12 254.70 15.50L254.70 15.50L254.70 15.50Q254.10 15.88 253.30 15.88L253.30 15.88L253.30 15.88Q251.72 15.88 250.82 14.85L250.82 14.85L250.82 14.85Q249.91 13.83 249.91 11.87L249.91 11.87L249.91 9.69L249.91 9.69Q249.91 7.78 250.82 6.73L250.82 6.73L250.82 6.73Q251.73 5.68 253.36 5.68L253.36 5.68L253.36 5.68Q254.20 5.68 254.84 5.96L254.84 5.96L254.84 5.96Q255.49 6.23 255.92 6.71L255.92 6.71L255.92 6.71Q256.35 7.20 256.58 7.85L256.58 7.85L256.58 7.85Q256.80 8.50 256.80 9.24L256.80 9.24L256.80 9.41L255.63 9.41L255.63 9.24L255.63 9.24Q255.63 8.76 255.49 8.32L255.49 8.32L255.49 8.32Q255.36 7.87 255.09 7.53L255.09 7.53L255.09 7.53Q254.81 7.18 254.39 6.98L254.39 6.98L254.39 6.98Q253.96 6.78 253.36 6.78L253.36 6.78L253.36 6.78Q252.22 6.78 251.66 7.60L251.66 7.60L251.66 7.60Q251.09 8.43 251.09 9.77L251.09 9.77L251.09 11.79L251.09 11.79Q251.09 13.23 251.66 14.01L251.66 14.01L251.66 14.01Q252.22 14.78 253.39 14.78L253.39 14.78L253.39 14.78Q254.44 14.78 255.03 14.11L255.03 14.11L255.03 14.11Q255.63 13.44 255.63 12.24L255.63 12.24L255.63 12.07L252.43 12.07ZM288.64 5.88L287.64 15.68L285.50 15.68L284.59 6.38L284.42 6.38L283.51 15.68L281.37 15.68L280.38 5.88L281.44 5.88L282.38 15.18L282.55 15.18L283.43 5.88L285.59 5.88L286.47 15.18L286.64 15.18L287.57 5.88L288.64 5.88ZM296.97 6.97L296.97 5.88L303.18 5.88L303.18 6.97L300.66 6.97L300.66 14.59L303.18 14.59L303.18 15.68L296.97 15.68L296.97 14.59L299.49 14.59L299.49 6.97L296.97 6.97ZM312.20 6.97L312.20 5.88L319.09 5.88L319.09 6.97L316.23 6.97L316.23 15.68L315.06 15.68L315.06 6.97L312.20 6.97ZM327.95 15.68L327.95 5.88L329.13 5.88L329.13 10.22L333.30 10.22L333.30 5.88L334.47 5.88L334.47 15.68L333.30 15.68L333.30 11.31L329.13 11.31L329.13 15.68L327.95 15.68ZM358.75 12.21L362.18 5.88L364.46 5.88L364.46 12.74L365.97 12.74L365.97 13.83L364.46 13.83L364.46 15.68L363.29 15.68L363.29 13.83L358.75 13.83L358.75 12.21ZM363.12 6.38L359.76 12.57L359.76 12.74L363.29 12.74L363.29 6.38L363.12 6.38ZM397.61 5.88L396.62 15.68L394.48 15.68L393.57 6.38L393.40 6.38L392.49 15.68L390.35 15.68L389.35 5.88L390.42 5.88L391.36 15.18L391.52 15.18L392.41 5.88L394.56 5.88L395.44 15.18L395.61 15.18L396.55 5.88L397.61 5.88ZM406.08 15.68L406.08 5.88L412.02 5.88L412.02 6.97L407.26 6.97L407.26 10.22L411.94 10.22L411.94 11.31L407.26 11.31L407.26 14.59L412.10 14.59L412.10 15.68L406.08 15.68ZM421.65 15.68L421.65 5.88L427.59 5.88L427.59 6.97L422.83 6.97L422.83 10.22L427.50 10.22L427.50 11.31L422.83 11.31L422.83 14.59L427.67 14.59L427.67 15.68L421.65 15.68ZM437.12 15.68L437.12 5.88L438.30 5.88L438.30 14.59L443.42 14.59L443.42 15.68L437.12 15.68ZM458.07 9.21L458.07 8.71L458.07 8.71Q458.07 8.23 457.88 7.87L457.88 7.87L457.88 7.87Q457.69 7.50 457.37 7.27L457.37 7.27L457.37 7.27Q457.04 7.03 456.62 6.90L456.62 6.90L456.62 6.90Q456.20 6.78 455.74 6.78L455.74 6.78L455.74 6.78Q455.34 6.78 454.97 6.88L454.97 6.88L454.97 6.88Q454.61 6.99 454.32 7.18L454.32 7.18L454.32 7.18Q454.03 7.38 453.87 7.66L453.87 7.66L453.87 7.66Q453.70 7.95 453.70 8.33L453.70 8.33L453.70 8.41L453.70 8.41Q453.70 8.82 453.87 9.11L453.87 9.11L453.87 9.11Q454.03 9.39 454.36 9.60L454.36 9.60L454.36 9.60Q454.69 9.80 455.18 9.93L455.18 9.93L455.18 9.93Q455.67 10.07 456.33 10.16L456.33 10.16L456.33 10.16Q457.87 10.40 458.60 11.07L458.60 11.07L458.60 11.07Q459.33 11.73 459.33 12.85L459.33 12.85L459.33 13.02L459.33 13.02Q459.33 13.65 459.11 14.17L459.11 14.17L459.11 14.17Q458.89 14.70 458.46 15.08L458.46 15.08L458.46 15.08Q458.04 15.46 457.41 15.67L457.41 15.67L457.41 15.67Q456.78 15.88 455.95 15.88L455.95 15.88L455.95 15.88Q455.01 15.88 454.29 15.60L454.29 15.60L454.29 15.60Q453.57 15.33 453.09 14.85L453.09 14.85L453.09 14.85Q452.61 14.36 452.35 13.71L452.35 13.71L452.35 13.71Q452.10 13.06 452.10 12.29L452.10 12.29L452.10 11.87L453.28 11.87L453.28 12.21L453.28 12.21Q453.28 13.50 453.98 14.14L453.98 14.14L453.98 14.14Q454.69 14.78 455.95 14.78L455.95 14.78L455.95 14.78Q457.04 14.78 457.60 14.30L457.60 14.30L457.60 14.30Q458.15 13.82 458.15 13.02L458.15 13.02L458.15 12.94L458.15 12.94Q458.15 12.17 457.58 11.76L457.58 11.76L457.58 11.76Q457.02 11.35 455.74 11.17L455.74 11.17L455.74 11.17Q455.00 11.07 454.40 10.87L454.40 10.87L454.40 10.87Q453.81 10.67 453.39 10.34L453.39 10.34L453.39 10.34Q452.97 10.01 452.75 9.55L452.75 9.55L452.75 9.55Q452.52 9.09 452.52 8.46L452.52 8.46L452.52 8.29L452.52 8.29Q452.52 7.71 452.76 7.24L452.76 7.24L452.76 7.24Q453.00 6.76 453.42 6.41L453.42 6.41L453.42 6.41Q453.85 6.06 454.45 5.87L454.45 5.87L454.45 5.87Q455.04 5.68 455.76 5.68L455.76 5.68L455.76 5.68Q456.58 5.68 457.23 5.92L457.23 5.92L457.23 5.92Q457.88 6.16 458.33 6.56L458.33 6.56L458.33 6.56Q458.78 6.96 459.01 7.50L459.01 7.50L459.01 7.50Q459.24 8.04 459.24 8.62L459.24 8.62L459.24 9.21L458.07 9.21ZM470.34 14.90L470.34 14.90L470.34 14.90Q470.34 14.49 470.63 14.20L470.63 14.20L470.63 14.20Q470.92 13.92 471.32 13.92L471.32 13.92L471.32 13.92Q471.73 13.92 472.02 14.20L472.02 14.20L472.02 14.20Q472.30 14.49 472.30 14.90L472.30 14.90L472.30 14.90Q472.30 15.30 472.02 15.59L472.02 15.59L472.02 15.59Q471.73 15.88 471.32 15.88L471.32 15.88L471.32 15.88Q470.92 15.88 470.63 15.59L470.63 15.59L470.63 15.59Q470.34 15.30 470.34 14.90ZM485.91 14.90L485.91 14.90L485.91 14.90Q485.91 14.49 486.20 14.20L486.20 14.20L486.20 14.20Q486.49 13.92 486.89 13.92L486.89 13.92L486.89 13.92Q487.30 13.92 487.58 14.20L487.58 14.20L487.58 14.20Q487.87 14.49 487.87 14.90L487.87 14.90L487.87 14.90Q487.87 15.30 487.58 15.59L487.58 15.59L487.58 15.59Q487.30 15.88 486.89 15.88L486.89 15.88L486.89 15.88Q486.49 15.88 486.20 15.59L486.20 15.59L486.20 15.59Q485.91 15.30 485.91 14.90ZM501.48 14.90L501.48 14.90L501.48 14.90Q501.48 14.49 501.77 14.20L501.77 14.20L501.77 14.20Q502.05 13.92 502.46 13.92L502.46 13.92L502.46 13.92Q502.87 13.92 503.15 14.20L503.15 14.20L503.15 14.20Q503.44 14.49 503.44 14.90L503.44 14.90L503.44 14.90Q503.44 15.30 503.15 15.59L503.15 15.59L503.15 15.59Q502.87 15.88 502.46 15.88L502.46 15.88L502.46 15.88Q502.05 15.88 501.77 15.59L501.77 15.59L501.77 15.59Q501.48 15.30 501.48 14.90Z"></path></g></svg>