<svg data-v-423bf9ae="" xmlns="http://www.w3.org/2000/svg" viewBox="0 0 389.2812688624645 60" class="font"><!----><!----><!----><g data-v-423bf9ae="" id="c607027a-3dad-44d4-a5bb-35042dcebfb0" fill="white" transform="matrix(5.323868912170654,0,0,5.323868912170654,-5.962737750668708,-8.944100843109034)"><path d="M3.22 8.39C3.22 7.21 3.63 6.27 4.44 5.56C5.25 4.86 6.17 4.51 7.21 4.51C7.89 4.51 8.48 4.63 8.99 4.89C9.49 5.14 9.86 5.48 10.09 5.92L10.50 3.60C9.88 2.97 8.85 2.66 7.41 2.66C6.28 2.66 5.24 2.90 4.29 3.37C3.34 3.84 2.58 4.53 2.00 5.45C1.41 6.37 1.12 7.42 1.12 8.61C1.12 9.85 1.54 10.87 2.39 11.68C3.24 12.48 4.38 12.88 5.81 12.88C6.51 12.88 7.10 12.81 7.57 12.66C8.05 12.51 8.51 12.26 8.96 11.91L9.42 9.48C9.02 9.94 8.51 10.31 7.90 10.60C7.29 10.89 6.65 11.03 5.99 11.03C5.18 11.03 4.51 10.80 4.00 10.32C3.48 9.85 3.22 9.21 3.22 8.39ZM16.90 6.16L16.69 7.38C16.50 6.91 16.21 6.54 15.81 6.28C15.42 6.01 14.97 5.88 14.46 5.88C13.50 5.88 12.62 6.25 11.83 6.99C11.04 7.72 10.64 8.66 10.64 9.80C10.64 10.75 10.90 11.50 11.43 12.05C11.96 12.60 12.65 12.88 13.50 12.88C13.93 12.88 14.37 12.76 14.80 12.51C15.24 12.26 15.62 11.92 15.95 11.48L15.75 12.60L17.64 12.60L18.79 6.16ZM12.59 9.76C12.59 9.05 12.80 8.50 13.23 8.13C13.66 7.75 14.18 7.56 14.78 7.56C15.25 7.56 15.63 7.67 15.92 7.89C16.21 8.11 16.35 8.45 16.35 8.92C16.35 9.66 16.12 10.22 15.67 10.61C15.21 11.00 14.70 11.20 14.15 11.20C13.69 11.20 13.31 11.07 13.02 10.81C12.73 10.56 12.59 10.21 12.59 9.76ZM24.30 8.09L25.54 6.58C25.27 6.16 24.74 5.95 23.95 5.95C23.40 5.95 22.84 6.29 22.27 6.96L22.41 6.16L20.45 6.16L19.32 12.60L21.28 12.60L21.92 8.96C22.06 8.17 22.56 7.77 23.42 7.77C23.76 7.77 24.05 7.88 24.30 8.09ZM26.91 10.35L25.20 10.88C25.21 11.43 25.48 11.91 26.01 12.33C26.53 12.74 27.22 12.95 28.06 12.95C28.91 12.95 29.61 12.74 30.16 12.33C30.70 11.91 30.97 11.30 30.97 10.49C30.97 9.94 30.77 9.50 30.38 9.18C30.18 9.03 29.78 8.82 29.16 8.58C28.91 8.48 28.74 8.41 28.65 8.37C28.56 8.33 28.46 8.28 28.34 8.21C28.21 8.14 28.14 8.08 28.11 8.02C28.07 7.95 28.06 7.88 28.06 7.80C28.06 7.63 28.13 7.49 28.27 7.38C28.41 7.28 28.57 7.22 28.77 7.22C29.20 7.22 29.54 7.50 29.81 8.06L31.36 7.56C31.25 7.05 30.97 6.63 30.52 6.30C30.07 5.97 29.50 5.81 28.80 5.81C27.99 5.81 27.34 6.01 26.85 6.41C26.36 6.81 26.11 7.32 26.11 7.94C26.11 8.50 26.25 8.92 26.54 9.20C26.83 9.48 27.22 9.70 27.71 9.86C28.56 10.15 28.99 10.43 28.99 10.71C28.99 10.92 28.90 11.07 28.72 11.18C28.54 11.29 28.32 11.34 28.06 11.34C27.72 11.34 27.45 11.25 27.25 11.08C27.05 10.91 26.94 10.66 26.91 10.35ZM31.46 4.55L33.98 4.55L32.56 12.60L34.57 12.60L35.98 4.55L38.46 4.55L38.77 2.80L31.77 2.80ZM41.82 8.09L43.05 6.58C42.78 6.16 42.25 5.95 41.47 5.95C40.92 5.95 40.36 6.29 39.79 6.96L39.93 6.16L37.97 6.16L36.83 12.60L38.79 12.60L39.44 8.96C39.58 8.17 40.08 7.77 40.94 7.77C41.27 7.77 41.57 7.88 41.82 8.09ZM49.22 6.16L49.01 7.38C48.83 6.91 48.54 6.54 48.14 6.28C47.74 6.01 47.29 5.88 46.79 5.88C45.83 5.88 44.95 6.25 44.16 6.99C43.36 7.72 42.97 8.66 42.97 9.80C42.97 10.75 43.23 11.50 43.76 12.05C44.28 12.60 44.97 12.88 45.82 12.88C46.26 12.88 46.70 12.76 47.13 12.51C47.57 12.26 47.95 11.92 48.27 11.48L48.08 12.60L49.97 12.60L51.11 6.16ZM44.91 9.76C44.91 9.05 45.13 8.50 45.56 8.13C45.99 7.75 46.50 7.56 47.11 7.56C47.58 7.56 47.95 7.67 48.24 7.89C48.53 8.11 48.68 8.45 48.68 8.92C48.68 9.66 48.45 10.22 47.99 10.61C47.53 11.00 47.03 11.20 46.48 11.20C46.01 11.20 45.64 11.07 45.35 10.81C45.06 10.56 44.91 10.21 44.91 9.76ZM58.76 1.68L57.75 7.36C57.56 6.90 57.27 6.53 56.88 6.27C56.49 6.01 56.04 5.88 55.54 5.88C54.45 5.88 53.54 6.23 52.81 6.94C52.08 7.65 51.72 8.65 51.72 9.94C51.72 10.88 51.98 11.61 52.50 12.12C53.02 12.63 53.71 12.88 54.57 12.88C55.01 12.88 55.45 12.76 55.88 12.51C56.32 12.26 56.70 11.92 57.02 11.48L56.83 12.60L58.72 12.60L60.65 1.68ZM53.66 9.76C53.66 9.05 53.88 8.50 54.31 8.13C54.74 7.75 55.25 7.56 55.86 7.56C56.33 7.56 56.70 7.67 56.99 7.89C57.28 8.11 57.43 8.45 57.43 8.92C57.43 9.66 57.20 10.22 56.74 10.61C56.28 11.00 55.78 11.20 55.23 11.20C54.76 11.20 54.39 11.07 54.10 10.81C53.81 10.56 53.66 10.21 53.66 9.76ZM62.26 9.87L67.35 9.87C67.48 9.49 67.55 9.05 67.55 8.57C67.55 7.76 67.26 7.09 66.68 6.58C66.10 6.07 65.38 5.81 64.51 5.81C63.31 5.81 62.31 6.22 61.53 7.03C60.75 7.84 60.35 8.85 60.35 10.05C60.35 10.89 60.63 11.57 61.19 12.10C61.75 12.62 62.53 12.88 63.53 12.88C64.42 12.88 65.14 12.70 65.69 12.33C66.24 11.96 66.72 11.46 67.13 10.82L65.42 10.42C64.97 11.08 64.39 11.41 63.66 11.41C63.24 11.41 62.90 11.28 62.64 11.03C62.39 10.77 62.26 10.40 62.26 9.91ZM65.62 8.48L62.55 8.48C62.71 8.10 62.97 7.79 63.32 7.56C63.68 7.33 64.04 7.21 64.40 7.21C65.19 7.21 65.60 7.63 65.62 8.48ZM73.01 8.09L74.24 6.58C73.97 6.16 73.44 5.95 72.66 5.95C72.11 5.95 71.55 6.29 70.98 6.96L71.12 6.16L69.16 6.16L68.03 12.60L69.99 12.60L70.63 8.96C70.77 8.17 71.27 7.77 72.13 7.77C72.46 7.77 72.76 7.88 73.01 8.09Z"></path></g><!----><!----></svg>